<?xml version="1.0" standalone="no"?>
<!DOCTYPE svg PUBLIC "-//W3C//DTD SVG 20010904//EN"
 "http://www.w3.org/TR/2001/REC-SVG-20010904/DTD/svg10.dtd">
<svg version="1.0" xmlns="http://www.w3.org/2000/svg"
 width="48.000000pt" height="48.000000pt" viewBox="0 0 48.000000 48.000000"
 preserveAspectRatio="xMidYMid meet">

<g transform="translate(0.000000,48.000000) scale(0.100000,-0.100000)"
fill="#000000" stroke="none">
<path d="M99 468 c-44 -37 -49 -61 -49 -238 0 -93 3 -170 8 -170 4 0 15 -14
24 -30 l17 -30 150 0 c145 0 151 1 165 22 14 24 31 238 18 238 -4 0 -6 40 -4
89 5 129 3 131 -176 131 -96 0 -143 -4 -153 -12z m271 -108 c0 -12 -61 -95
-107 -146 -15 -17 -44 -40 -63 -50 -19 -10 -43 -25 -52 -33 -25 -20 -22 2 2
24 12 10 18 25 15 33 -3 7 0 23 6 35 33 63 199 177 199 137z m20 -135 c0 -8
-4 -15 -9 -15 -13 0 -22 16 -14 24 11 11 23 6 23 -9z m-165 -82 c-3 -8 -5 -19
-5 -24 0 -6 -7 -6 -19 0 -10 6 -22 7 -27 3 -5 -4 -1 2 9 14 19 24 51 28 42 7z"/>
</g>
</svg>
